<svg id="visual" viewBox="0 0 900 600" width="900" height="600" xmlns="http://www.w3.org/2000/svg" xmlns:xlink="http://www.w3.org/1999/xlink" version="1.1"><rect x="0" y="0" width="900" height="600" fill="#211919"></rect><path d="M0 274L100 312L200 342L300 313L400 335L500 324L600 311L700 287L800 263L900 342L900 601L800 601L700 601L600 601L500 601L400 601L300 601L200 601L100 601L0 601Z" fill="#3c0440"></path><path d="M0 327L100 299L200 289L300 365L400 318L500 287L600 295L700 370L800 327L900 307L900 601L800 601L700 601L600 601L500 601L400 601L300 601L200 601L100 601L0 601Z" fill="#4d0244"></path><path d="M0 367L100 383L200 314L300 384L400 332L500 332L600 317L700 313L800 313L900 357L900 601L800 601L700 601L600 601L500 601L400 601L300 601L200 601L100 601L0 601Z" fill="#5e0047"></path><path d="M0 403L100 395L200 371L300 346L400 343L500 397L600 366L700 385L800 394L900 375L900 601L800 601L700 601L600 601L500 601L400 601L300 601L200 601L100 601L0 601Z" fill="#6f0048"></path><path d="M0 437L100 381L200 430L300 403L400 432L500 390L600 422L700 399L800 432L900 399L900 601L800 601L700 601L600 601L500 601L400 601L300 601L200 601L100 601L0 601Z" fill="#800048"></path><path d="M0 402L100 422L200 402L300 449L400 456L500 430L600 436L700 445L800 416L900 411L900 601L800 601L700 601L600 601L500 601L400 601L300 601L200 601L100 601L0 601Z" fill="#900047"></path><path d="M0 437L100 458L200 485L300 467L400 431L500 447L600 471L700 456L800 446L900 471L900 601L800 601L700 601L600 601L500 601L400 601L300 601L200 601L100 601L0 601Z" fill="#9f0644"></path><path d="M0 473L100 461L200 507L300 503L400 469L500 506L600 464L700 493L800 498L900 483L900 601L800 601L700 601L600 601L500 601L400 601L300 601L200 601L100 601L0 601Z" fill="#ad1140"></path><path d="M0 516L100 502L200 510L300 520L400 512L500 495L600 517L700 525L800 526L900 522L900 601L800 601L700 601L600 601L500 601L400 601L300 601L200 601L100 601L0 601Z" fill="#ba1e3b"></path><path d="M0 537L100 550L200 522L300 542L400 545L500 523L600 553L700 545L800 554L900 540L900 601L800 601L700 601L600 601L500 601L400 601L300 601L200 601L100 601L0 601Z" fill="#c62c34"></path><path d="M0 576L100 568L200 574L300 568L400 575L500 573L600 578L700 562L800 568L900 550L900 601L800 601L700 601L600 601L500 601L400 601L300 601L200 601L100 601L0 601Z" fill="#d03a2c"></path></svg>